<svg xmlns="http://www.w3.org/2000/svg" viewBox="0 0 512 512" width="512" height="512">
  <defs>
    <!-- 颜色方案7: 青蓝水波系 -->
    <linearGradient id="docGradient" x1="0%" y1="0%" x2="100%" y2="100%">
      <stop offset="0%" style="stop-color:#0891B2;stop-opacity:1" />
      <stop offset="100%" style="stop-color:#0E7490;stop-opacity:1" />
    </linearGradient>
    
    <radialGradient id="waveGradient" cx="50%" cy="50%" r="50%">
      <stop offset="0%" style="stop-color:#06B6D4;stop-opacity:1" />
      <stop offset="100%" style="stop-color:#0891B2;stop-opacity:0.3" />
    </radialGradient>
    
    <!-- 麦克风颜色选择3: 深海蓝黑系 (酷炫专业) -->
    <linearGradient id="micBaseGradient3" x1="0%" y1="0%" x2="100%" y2="100%">
      <stop offset="0%" style="stop-color:#1E293B;stop-opacity:1" />
      <stop offset="100%" style="stop-color:#0F172A;stop-opacity:1" />
    </linearGradient>
    
    <linearGradient id="micStandGradient3" x1="0%" y1="0%" x2="100%" y2="100%">
      <stop offset="0%" style="stop-color:#334155;stop-opacity:1" />
      <stop offset="100%" style="stop-color:#1E293B;stop-opacity:1" />
    </linearGradient>
    
    <filter id="glow" x="-50%" y="-50%" width="200%" height="200%">
      <feDropShadow dx="0" dy="0" stdDeviation="15" flood-color="#06B6D4" flood-opacity="0.5"/>
    </filter>
    
    <filter id="docShadow" x="-30%" y="-30%" width="160%" height="160%">
      <feDropShadow dx="0" dy="8" stdDeviation="15" flood-color="#000" flood-opacity="0.3"/>
    </filter>
    
    <filter id="micShadow" x="-30%" y="-30%" width="160%" height="160%">
      <feDropShadow dx="0" dy="4" stdDeviation="8" flood-color="#000" flood-opacity="0.4"/>
    </filter>
    
    <filter id="cyanGlow" x="-50%" y="-50%" width="200%" height="200%">
      <feDropShadow dx="0" dy="0" stdDeviation="8" flood-color="#06B6D4" flood-opacity="0.6"/>
    </filter>
  </defs>
  
  <!-- 麦克风选择3: 深海蓝黑系 -->
  <g transform="translate(256, 256)">
    
    <!-- 声波圆环 -->
    <g>
      <circle cx="0" cy="0" r="25" fill="#06B6D4" filter="url(#glow)"/>
      <circle cx="0" cy="0" r="100" stroke="url(#waveGradient)" stroke-width="16" fill="none" opacity="0.95"/>
      <circle cx="0" cy="0" r="150" stroke="url(#waveGradient)" stroke-width="14" fill="none" opacity="0.8"/>
      <circle cx="0" cy="0" r="200" stroke="url(#waveGradient)" stroke-width="12" fill="none" opacity="0.6"/>
      <circle cx="0" cy="0" r="240" stroke="url(#waveGradient)" stroke-width="10" fill="none" opacity="0.4"/>
    </g>
    
    <!-- 文档 -->
    <rect x="-75" y="-100" width="150" height="200" rx="20" 
          fill="url(#docGradient)" 
          filter="url(#docShadow)"/>
    
    <!-- 文档内容 -->
    <rect x="-50" y="-65" width="100" height="16" rx="8" fill="#F0FDFF" opacity="0.95"/>
    <rect x="-50" y="-35" width="85" height="16" rx="8" fill="#CFFAFE" opacity="0.85"/>
    <rect x="-50" y="-5" width="95" height="16" rx="8" fill="#A5F3FC" opacity="0.75"/>
    <rect x="-50" y="25" width="80" height="16" rx="8" fill="#67E8F9" opacity="0.65"/>
    <rect x="-50" y="55" width="70" height="16" rx="8" fill="#22D3EE" opacity="0.55"/>
    
    <!-- 麦克风底座: 深海蓝黑系 -->
    <g filter="url(#cyanGlow)">
      <circle cx="0" cy="108" r="12" stroke="#06B6D4" stroke-width="3" fill="none" opacity="0.9"/>
      <ellipse cx="0" cy="120" rx="60" ry="15" fill="url(#micBaseGradient3)"/>
      <rect x="-8" y="105" width="16" height="30" rx="8" fill="url(#micStandGradient3)"/>
      <rect x="-12" y="100" width="24" height="8" rx="4" fill="url(#micStandGradient3)"/>
      
      <!-- 青蓝发光细节 -->
      <ellipse cx="0" cy="120" rx="50" ry="8" stroke="#22D3EE" stroke-width="1" fill="none" opacity="0.5"/>
      <rect x="-10" y="102" width="20" height="2" rx="1" fill="#06B6D4" opacity="0.7"/>
      <circle cx="-40" cy="120" r="2" fill="#06B6D4" opacity="0.8"/>
      <circle cx="40" cy="120" r="2" fill="#06B6D4" opacity="0.8"/>
    </g>
    
  </g>
</svg>
