<svg xmlns="http://www.w3.org/2000/svg" viewBox="0 0 512 512" width="512" height="512">
  <defs>
    <!-- VS Code 蓝色渐变 -->
    <linearGradient id="docGradient" x1="0%" y1="0%" x2="100%" y2="100%">
      <stop offset="0%" style="stop-color:#007ACC;stop-opacity:1" />
      <stop offset="100%" style="stop-color:#005A9E;stop-opacity:1" />
    </linearGradient>
    
    <!-- 声波渐变 -->
    <linearGradient id="waveGradient" x1="0%" y1="50%" x2="100%" y2="50%">
      <stop offset="0%" style="stop-color:#00BCF2;stop-opacity:1" />
      <stop offset="100%" style="stop-color:#FFFFFF;stop-opacity:0.6" />
    </linearGradient>
    
    <filter id="shadow" x="-30%" y="-30%" width="160%" height="160%">
      <feDropShadow dx="0" dy="8" stdDeviation="16" flood-color="#000" flood-opacity="0.2"/>
    </filter>
  </defs>
  
  <!-- 组合A：大文档为主，声波环绕 -->
  <g transform="translate(256, 256)">
    
    <!-- 元素1: 大尺寸文档 (主要元素) -->
    <rect x="-100" y="-120" width="200" height="240" rx="20" 
          fill="url(#docGradient)" 
          filter="url(#shadow)"/>
    
    <!-- 文档内容 - 更粗的线条增强识别度 -->
    <rect x="-70" y="-80" width="140" height="16" rx="8" fill="#ffffff" opacity="0.95"/>
    <rect x="-70" y="-45" width="120" height="16" rx="8" fill="#ffffff" opacity="0.85"/>
    <rect x="-70" y="-10" width="130" height="16" rx="8" fill="#ffffff" opacity="0.75"/>
    <rect x="-70" y="25" width="100" height="16" rx="8" fill="#ffffff" opacity="0.65"/>
    <rect x="-70" y="60" width="110" height="16" rx="8" fill="#ffffff" opacity="0.55"/>
    
    <!-- 元素2: 紧凑声波圆环 (辅助元素，右上角) -->
    <g transform="translate(120, -80)">
      <!-- 声波中心点 -->
      <circle cx="0" cy="0" r="8" fill="#00BCF2"/>
      
      <!-- 三层紧密声波 -->
      <circle cx="0" cy="0" r="25" stroke="url(#waveGradient)" stroke-width="6" fill="none" opacity="0.9"/>
      <circle cx="0" cy="0" r="40" stroke="url(#waveGradient)" stroke-width="4" fill="none" opacity="0.6"/>
      <circle cx="0" cy="0" r="55" stroke="url(#waveGradient)" stroke-width="3" fill="none" opacity="0.4"/>
    </g>
    
  </g>
</svg>
