<svg xmlns="http://www.w3.org/2000/svg" viewBox="0 0 512 512" width="512" height="512">
  <defs>
    <!-- 主渐变 -->
    <linearGradient id="mainGradient" x1="0%" y1="0%" x2="100%" y2="100%">
      <stop offset="0%" style="stop-color:#007ACC;stop-opacity:1" />
      <stop offset="100%" style="stop-color:#00BCF2;stop-opacity:1" />
    </linearGradient>
    
    <!-- 文本渐变 -->
    <linearGradient id="textGradient" x1="0%" y1="0%" x2="100%" y2="0%">
      <stop offset="0%" style="stop-color:#FFFFFF;stop-opacity:1" />
      <stop offset="100%" style="stop-color:#00BCF2;stop-opacity:0.8" />
    </linearGradient>
    
    <filter id="glow" x="-30%" y="-30%" width="160%" height="160%">
      <feDropShadow dx="0" dy="0" stdDeviation="8" flood-color="#00BCF2" flood-opacity="0.6"/>
    </filter>
  </defs>
  
  <!-- 方案二：文本变为声波 （变形概念）-->
  <g transform="translate(256, 256)">
    
    <!-- 元素1: 文本行 -->
    <g transform="translate(-80, 0)">
      <!-- 第一行 - 逐渐变成声波 -->
      <rect x="0" y="-60" width="80" height="12" rx="6" fill="url(#textGradient)"/>
      <rect x="90" y="-60" width="20" height="12" rx="6" fill="#00BCF2" opacity="0.8"/>
      <rect x="120" y="-60" width="15" height="12" rx="6" fill="#00BCF2" opacity="0.6"/>
      <rect x="145" y="-60" width="10" height="12" rx="6" fill="#00BCF2" opacity="0.4"/>
      
      <!-- 第二行 -->
      <rect x="0" y="-30" width="70" height="12" rx="6" fill="url(#textGradient)"/>
      <rect x="80" y="-30" width="25" height="12" rx="6" fill="#00BCF2" opacity="0.7"/>
      <rect x="115" y="-30" width="18" height="12" rx="6" fill="#00BCF2" opacity="0.5"/>
      
      <!-- 第三行 -->
      <rect x="0" y="0" width="90" height="12" rx="6" fill="url(#textGradient)"/>
      <rect x="100" y="0" width="22" height="12" rx="6" fill="#00BCF2" opacity="0.6"/>
      <rect x="132" y="0" width="12" height="12" rx="6" fill="#00BCF2" opacity="0.4"/>
      
      <!-- 第四行 -->
      <rect x="0" y="30" width="60" height="12" rx="6" fill="url(#textGradient)"/>
      <rect x="70" y="30" width="30" height="12" rx="6" fill="#00BCF2" opacity="0.8"/>
      <rect x="110" y="30" width="20" height="12" rx="6" fill="#00BCF2" opacity="0.5"/>
    </g>
    
    <!-- 元素2: 扬声器符号 -->
    <g transform="translate(120, 0)">
      <!-- 扬声器主体 -->
      <path d="M 0 -40 L 20 -20 L 40 -20 L 40 20 L 20 20 L 0 40 Z" 
            fill="url(#mainGradient)" 
            filter="url(#glow)"/>
      
      <!-- 声音输出线条 -->
      <path d="M 50 -15 Q 65 0 50 15" stroke="#FFFFFF" stroke-width="4" stroke-linecap="round" fill="none"/>
      <path d="M 60 -25 Q 80 0 60 25" stroke="#FFFFFF" stroke-width="3" stroke-linecap="round" fill="none" opacity="0.7"/>
    </g>
    
  </g>
</svg>
